<svg version="1.1" id="Layer_1" xmlns="http://www.w3.org/2000/svg" xmlns:xlink="http://www.w3.org/1999/xlink" x="0px" y="0px"
	 width="100%" viewBox="0 0 500 500" enable-background="new 0 0 500 500" xml:space="preserve">
<path fill="#000000" opacity="1.000000" stroke="none" 
	d="
M221.000000,501.000000 
	C148.666687,501.000000 76.833313,500.968842 5.000223,501.096375 
	C1.575809,501.102448 0.903037,500.423798 0.905301,497.000000 
	C1.013779,333.000092 1.013772,169.000122 0.905333,5.000233 
	C0.903070,1.576903 1.575835,0.903023 4.999890,0.905288 
	C168.999771,1.013774 332.999725,1.013761 496.999634,0.905352 
	C500.422668,0.903089 501.096985,1.575454 501.094727,4.999771 
	C500.986206,168.999664 500.986237,332.999634 501.094604,496.999542 
	C501.096893,500.422363 500.425262,501.100281 497.000275,501.095795 
	C405.166962,500.975525 313.333466,501.000000 221.000000,501.000000 
z"/>
<path fill="#E55E41" opacity="1.000000" stroke="none" 
	d="
M200.222046,245.222046 
	C173.368912,272.107788 146.767609,298.745392 120.161507,325.378174 
	C112.260284,333.287323 105.245728,333.312195 97.306358,325.458374 
	C92.806427,321.006927 88.245461,316.612823 83.862923,312.047974 
	C77.156548,305.062622 77.234634,297.906067 84.081642,291.043060 
	C142.199371,232.789383 200.330856,174.549438 258.480011,116.327141 
	C266.369568,108.427666 273.465485,108.518204 281.381927,116.460953 
	C285.615082,120.708168 289.821960,124.981621 294.027863,129.255859 
	C301.532532,136.882477 301.578278,143.723495 294.050171,151.268814 
	C262.872223,182.517944 231.667160,213.740036 200.222046,245.222046 
z"/>
<path fill="#E65E41" opacity="1.000000" stroke="none" 
	d="
M286.707397,307.292603 
	C299.547424,320.152130 312.148407,332.750732 324.723633,345.375031 
	C332.635101,353.317413 332.669769,360.296173 324.836700,368.236206 
	C320.626556,372.503815 316.390533,376.747711 312.089569,380.923431 
	C304.133301,388.647919 297.494751,388.640259 289.710175,380.875427 
	C275.561615,366.762817 261.450562,352.612671 247.331589,338.470459 
	C239.951706,331.078430 237.719696,331.089172 230.186874,338.641815 
	C214.075699,354.795349 197.981033,370.965363 181.855209,387.104248 
	C173.726395,395.239655 166.960190,395.158691 158.716354,386.927094 
	C154.356262,382.573395 149.907043,378.306122 145.631699,373.871033 
	C138.909134,366.897308 138.909790,359.651764 145.720291,352.811920 
	C173.098114,325.316162 200.512131,297.856323 227.950562,270.421021 
	C235.338104,263.034302 242.543793,263.126312 250.087631,270.639069 
	C262.241516,282.742828 274.337189,294.905029 286.707397,307.292603 
z"/>
<path fill="#E55E40" opacity="1.000000" stroke="none" 
	d="
M314.567261,212.430481 
	C348.618988,246.482071 382.423004,280.281860 416.221466,314.087158 
	C425.335510,323.203003 425.304169,329.539612 416.143951,338.646759 
	C411.773590,342.991821 407.478729,347.414856 403.039337,351.687927 
	C396.963043,357.536621 389.438721,357.747559 383.514130,351.844360 
	C347.291412,315.752563 311.125671,279.603302 275.039185,243.375351 
	C268.703339,237.014679 269.001465,229.515106 275.324158,223.079681 
	C279.876404,218.446228 284.503876,213.886398 289.116272,209.312363 
	C297.031525,201.462982 303.407837,201.480286 311.487610,209.355301 
	C312.442108,210.285614 313.374664,211.238388 314.567261,212.430481 
z"/>
</svg>